<svg width="45" height="12" viewBox="0 0 45 12" fill="none" xmlns="http://www.w3.org/2000/svg">
<path d="M0.329102 6.00001C0.329102 8.98341 2.65171 11.3333 5.59463 11.3333C7.47895 11.3333 9.13886 10.3703 10.0617 8.91834V11.5H11.3117V0.500009H10.0617V3.08168C9.13886 1.62973 7.47895 0.666676 5.59463 0.666676C2.65171 0.666676 0.329102 3.01659 0.329102 6.00001ZM8.81172 6.00001C8.81172 3.82973 7.39185 2.41668 5.59463 2.41668C3.79741 2.41668 2.37754 3.82973 2.37754 6.00001C2.37754 8.1703 3.79741 9.58334 5.59463 9.58334C7.39185 9.58334 8.81172 8.1703 8.81172 6.00001Z" fill="currentColor"/>
<path d="M44.3291 5.5H12.3291V6.5H44.3291V5.5Z" fill="currentColor"/>
</svg>